<svg xmlns="http://www.w3.org/2000/svg" width="70" height="70" viewBox="0 0 70 70">
  <g id="Logo" transform="translate(3 3)">
    <g id="Shape" fill="#fff" stroke="#fafafb" stroke-width="3">
      <rect width="64" height="64" rx="10" stroke="none"/>
      <rect x="-1.5" y="-1.5" width="67" height="67" rx="11.5" fill="none"/>
    </g>
    <path id="Fill_2" data-name="Fill 2" d="M28.681,40.889a8.809,8.809,0,0,1-1.046-.082,10.475,10.475,0,0,1-4.022-1.391,21.386,21.386,0,0,1-4.988-4.257,20.561,20.561,0,0,1-4.987,4.257,10.477,10.477,0,0,1-4.023,1.391,8.809,8.809,0,0,1-1.046.082,8.177,8.177,0,0,1-3.258-.655A8.694,8.694,0,0,1,.084,33.439a9.387,9.387,0,0,1,.482-4.42c.2-.537.406-1.032.6-1.473.15-.344.3-.68.447-1,.17-.378.33-.734.48-1.083l.04-.082c2.559-5.664,5.467-11.715,8.888-18.5l.122-.245c.283-.542.572-1.126.851-1.691l.115-.233a13.873,13.873,0,0,1,1.447-2.251A6.715,6.715,0,0,1,18.707,0a6.488,6.488,0,0,1,5.108,2.537,10.948,10.948,0,0,1,1.355,2.081l.093.172.078.158c.291.59.591,1.2.887,1.765l.122.247c3.028,5.926,6.019,12.151,8.889,18.5l.04.041c.151.35.311.708.481,1.087.146.326.3.66.444,1,.136.3.274.652.408.987.066.165.131.328.2.486a7.873,7.873,0,0,1,.363,4.379,8.674,8.674,0,0,1-5.23,6.794A8.012,8.012,0,0,1,28.681,40.889ZM18.746,2.7a4.153,4.153,0,0,0-3.218,1.515,9,9,0,0,0-1.125,1.8c-.165.314-.332.644-.493.963s-.314.62-.471.921l-.122.245c-2.928,5.726-5.9,11.909-8.848,18.377l-.041.083c-.3.646-.637,1.378-.924,2.046-.061.149-.122.291-.181.427a8.106,8.106,0,0,0-.342.882,6.889,6.889,0,0,0-.362,3.192,6.056,6.056,0,0,0,3.661,4.79,6.343,6.343,0,0,0,3.056.41,7.817,7.817,0,0,0,3.057-1.065,18.291,18.291,0,0,0,4.585-3.97,23.835,23.835,0,0,1-4.866-9.086,8.561,8.561,0,0,1-.2-3.479A6.687,6.687,0,0,1,13,17.969a6.867,6.867,0,0,1,5.671-2.906,6.657,6.657,0,0,1,6.757,5.69,10.421,10.421,0,0,1-.2,3.479,23.28,23.28,0,0,1-4.867,9.046,18.913,18.913,0,0,0,4.586,3.969A7.8,7.8,0,0,0,28,38.309a6.551,6.551,0,0,0,.769.046,5.837,5.837,0,0,0,2.288-.455,6.052,6.052,0,0,0,3.659-4.789,6.965,6.965,0,0,0-.282-3.152,7.99,7.99,0,0,0-.339-.878c-.06-.139-.121-.281-.183-.432-.162-.328-.316-.683-.465-1.026s-.3-.694-.461-1.02v-.04C30.222,20.492,27.259,14.3,24.177,8.145L24.056,7.9c-.168-.32-.339-.656-.5-.981-.152-.3-.308-.608-.462-.9a9.021,9.021,0,0,0-1.126-1.8A4.153,4.153,0,0,0,18.746,2.7Zm-.08,14.857a4.221,4.221,0,0,0-3.54,1.8,4.014,4.014,0,0,0-.644,1.718,6.741,6.741,0,0,0,.122,2.5,20.366,20.366,0,0,0,4.063,7.613,20.987,20.987,0,0,0,4.063-7.613,6.729,6.729,0,0,0,.121-2.5,3.991,3.991,0,0,0-.644-1.718A4.1,4.1,0,0,0,18.666,17.559Z" transform="translate(13.333 11.556)" fill="#f55e65"/>
  </g>
</svg>
