<svg xmlns="http://www.w3.org/2000/svg" width="70" height="70" viewBox="0 0 70 70">
  <g id="Logo" transform="translate(3 3)">
    <g id="Shape" fill="#191619" stroke="#fafafb" stroke-width="3">
      <rect width="64" height="64" rx="10" stroke="none"/>
      <rect x="-1.5" y="-1.5" width="67" height="67" rx="11.5" fill="none"/>
    </g>
    <g id="amazon_2" data-name="amazon 2" transform="translate(14 14)">
      <path id="path22" d="M.163,2.145c-.377-.346-.041-.818.412-.55A36.153,36.153,0,0,0,18.77,6.5,35.7,35.7,0,0,0,32.647,3.615c.68-.293,1.251.455.585.955A26.062,26.062,0,0,1,18.347,9.2,26.7,26.7,0,0,1,.163,2.145ZM33.849,6.512c.486-1.233,1.574-3.994,1.058-4.664s-3.4-.318-4.7-.16c-.392.048-.454-.3-.1-.553,2.3-1.645,6.08-1.17,6.519-.619s-.116,4.4-2.275,6.238a.534.534,0,0,1-.329.147C33.851,6.9,33.755,6.752,33.849,6.512Z" transform="translate(0.117 27.804)" fill="#f90"/>
      <path id="path44" d="M10.2-24.644a11.981,11.981,0,0,0-5.9,1.4,7.282,7.282,0,0,0-3.583,5.2.756.756,0,0,0,.633.9l4.112.452a.908.908,0,0,0,.737-.793A3.239,3.239,0,0,1,9.6-20.07a2.778,2.778,0,0,1,2.382,1.12,4.947,4.947,0,0,1,.517,2.8c0,.111,0,.221,0,.328v.56c-.38.043-.773.084-1.188.127a23.439,23.439,0,0,0-6.79,1.367A7.473,7.473,0,0,0,1.265-11.12,7.687,7.687,0,0,0,0-6.72,6.86,6.86,0,0,0,1.836-1.68,6.276,6.276,0,0,0,6.35,0c3.041,0,4.675-.732,6.995-3.135.117.173.222.33.322.482a9.178,9.178,0,0,0,2.11,2.392.922.922,0,0,0,.441.114.829.829,0,0,0,.56-.214l.011.009c.811-.733,2.346-2.09,3.253-2.864a.818.818,0,0,0,.014-1.145c-.082-.116-.165-.229-.248-.342a5.455,5.455,0,0,1-1.353-3.655v-6.718c0-.229,0-.457,0-.683v-.005c.014-2.536.028-4.932-1.868-6.733C14.548-24.489,11.183-24.644,10.2-24.644ZM8.771-4.34c-1.591,0-2.579-1.2-2.579-3.128a3.7,3.7,0,0,1,2-3.548,9.36,9.36,0,0,1,4.306-.793v1.156A8.187,8.187,0,0,1,11.708-6.3,3.421,3.421,0,0,1,8.771-4.34Z" transform="translate(8.297 24.854)" fill="#fff"/>
    </g>
  </g>
</svg>
