<svg xmlns="http://www.w3.org/2000/svg" width="70" height="70" viewBox="0 0 70 70">
  <g id="Logo" transform="translate(3 3)">
    <g id="Shape" fill="#67b56b" stroke="#fafafb" stroke-width="3">
      <rect width="64" height="64" rx="10" stroke="none"/>
      <rect x="-1.5" y="-1.5" width="67" height="67" rx="11.5" fill="none"/>
    </g>
    <path id="Shape-2" data-name="Shape" d="M25.4,41.778c-2.747,0-4.835-.173-6.1-1.016-1.155-.773-1.648-2.123-1.648-4.513,0-2.168.439-3.529,1.382-4.283.9-.723,2.209-.871,3.89-.871.453,0,.922.011,1.362.023.121,0,.194.028.23.079.063.089.009.251-.065.477a3.188,3.188,0,0,0-.2,1.027,4.485,4.485,0,0,0,.094.873c.042.223.069.371,0,.449-.041.049-.117.071-.246.071l-.316,0-.338,0c-1.057,0-2.185.112-2.185,1.456,0,1.846.8,1.94,3.095,1.94h.45c3.244,0,3.773-.452,3.773-3.224,0-2.188-.286-3.605-.9-4.46A2.974,2.974,0,0,0,25.4,28.679a28.4,28.4,0,0,1-5.024-.875c-2.319-.81-2.291-3.7-2.281-4.785,0-.064,0-.121,0-.171a.093.093,0,0,0-.1-.1.1.1,0,0,0-.1.1,15.586,15.586,0,0,1-.761,5.039c-.21.576-.361.964-.363.968a1.711,1.711,0,0,1-1.718,1.088,9.707,9.707,0,0,1-1.443-.162c-.305-.048-.62-.1-.962-.141a43.281,43.281,0,0,1-8.392-1.971A2.838,2.838,0,0,1,2.663,26C1.553,23.752.359,16.322.185,15.049A21.075,21.075,0,0,1,0,12.925a3.955,3.955,0,0,1,.623-2.456,2.784,2.784,0,0,1,1.118-.876,4.907,4.907,0,0,1,2-.363h3.99A1.561,1.561,0,0,0,9.3,7.686v-.08c0-.241-.014-.956-.023-1.737l0-.152c-.011-.933-.023-1.9-.023-2.329a3.061,3.061,0,0,1,.53-1.831A3.963,3.963,0,0,1,11.891.236,11.939,11.939,0,0,1,14.55,0a13.5,13.5,0,0,1,4.579.7,3.42,3.42,0,0,1,1.921,2.579c.6-.018,1.184-.027,1.744-.027a36.251,36.251,0,0,1,4.072.2,30.209,30.209,0,0,1,5.484,1,3.464,3.464,0,0,1,2.236,2.813,113.492,113.492,0,0,1,.873,17.9,51.662,51.662,0,0,1-1.854,10.6c-.959,2.923-1.851,4.429-3.08,5.2C29.321,41.723,27.785,41.778,25.4,41.778Zm.776-22.022c.1,0,.206,0,.309.005a7.864,7.864,0,0,1,2.866.611c-.01-1.954-.739-2.97-2.167-3.018l-.1,0c-1.275,0-2.027.843-2.237,2.506A8.606,8.606,0,0,1,26.174,19.756ZM.668,8.753v0A.086.086,0,0,1,.7,8.708L8.447,1.154a.083.083,0,0,1,.046-.024l-.136.251a4.352,4.352,0,0,0-.45,2v.011c0,.85.04,3.714.048,4.279v.018a.41.41,0,0,1-.413.406H3.554a6.094,6.094,0,0,0-2.476.464c-.029.013-.223.107-.408.2Z" transform="translate(14.222 11.556)" fill="#fff"/>
  </g>
</svg>
