<svg id="F_icon" xmlns="http://www.w3.org/2000/svg" width="15.921" height="15.957" viewBox="0 0 15.921 15.957">
  <path id="Blue_1_" d="M15.042,15.921a.879.879,0,0,0,.879-.879V.879A.879.879,0,0,0,15.042,0H.879A.879.879,0,0,0,0,.879V15.042a.879.879,0,0,0,.879.879Z" fill="#3c5a99"/>
  <path id="f" d="M4.556,13.516V7.351H6.625l.31-2.4H4.556V3.414c0-.7.193-1.17,1.191-1.17H7.019V.095A17.009,17.009,0,0,0,5.165,0a2.9,2.9,0,0,0-3.09,3.176V4.948H0v2.4H2.075v6.165Z" transform="translate(6.465 2.441)" fill="#fff"/>
</svg>
