<svg id="Saved_Copy" data-name="Saved Copy" xmlns="http://www.w3.org/2000/svg" width="36" height="36" viewBox="0 0 36 36">
  <rect id="Shape" width="36" height="36" rx="10" fill="rgba(71,59,240,0.16)"/>
  <g id="Component_icon_ic_Saved" data-name="Component/icon/ic_Saved" transform="translate(8 8)">
    <path id="Shape-2" data-name="Shape" d="M12.083,16.667h-9A3.087,3.087,0,0,1,0,13.583V3.083A3.087,3.087,0,0,1,3.083,0h7.149a1.58,1.58,0,0,1,1.217.57L14.8,4.591A1.585,1.585,0,0,1,15.167,5.6v7.979A3.087,3.087,0,0,1,12.083,16.667Zm-9-15A1.418,1.418,0,0,0,1.666,3.083v10.5A1.418,1.418,0,0,0,3.083,15h9A1.418,1.418,0,0,0,13.5,13.583V6.166H11.333A1.585,1.585,0,0,1,9.75,4.583V1.666Zm8.333,1.468V4.5h1.138ZM11.747,13H3.419a.239.239,0,0,1-.253-.222V11.555a.239.239,0,0,1,.253-.222h8.328a.239.239,0,0,1,.253.222v1.222A.239.239,0,0,1,11.747,13Z" transform="translate(2.5 1.667)" fill="#473bf0"/>
  </g>
</svg>
