<svg xmlns="http://www.w3.org/2000/svg" width="70" height="70" viewBox="0 0 70 70">
  <g id="Logo" transform="translate(3 3)">
    <g id="Shape" fill="#f46899" stroke="#fafafb" stroke-width="3">
      <rect width="64" height="64" rx="10" stroke="none"/>
      <rect x="-1.5" y="-1.5" width="67" height="67" rx="11.5" fill="none"/>
    </g>
    <path id="dribbble_2" data-name="dribbble 2" d="M17-34A16.889,16.889,0,0,0,4.979-29.021,16.889,16.889,0,0,0,0-17,16.889,16.889,0,0,0,4.979-4.979,16.889,16.889,0,0,0,17,0,16.889,16.889,0,0,0,29.021-4.979,16.889,16.889,0,0,0,34-17a16.889,16.889,0,0,0-4.979-12.021A16.889,16.889,0,0,0,17-34Zm2.014,11.355A63.547,63.547,0,0,0,13.569-31.1,14.731,14.731,0,0,1,17-31.521a14.051,14.051,0,0,1,9.584,3.63l-.276.388a9.651,9.651,0,0,1-.83.9,14.33,14.33,0,0,1-1.45,1.262,19.319,19.319,0,0,1-2.137,1.361A20.6,20.6,0,0,1,19.014-22.645ZM2.789-19.988h0a14.416,14.416,0,0,1,2.833-6.021A14.4,14.4,0,0,1,10.8-30.127a76.56,76.56,0,0,1,5.4,8.367A52.754,52.754,0,0,1,2.789-19.988ZM21.4-17.62a2.712,2.712,0,0,1-.166-.365c-.066-.168-.114-.3-.144-.388-.3-.657-.625-1.364-.974-2.1A22.724,22.724,0,0,0,23.032-21.9a22.473,22.473,0,0,0,2.213-1.438,18.738,18.738,0,0,0,1.572-1.339,12.881,12.881,0,0,0,.963-.986c.134-.167.271-.345.42-.542l.022-.023a14.27,14.27,0,0,1,3.3,9.076L31.3-17.2c-.147-.03-.333-.063-.553-.1l-.807-.132c-.312-.051-.669-.1-1.063-.144-.378-.044-.8-.085-1.251-.122-.43-.036-.893-.065-1.417-.088-.492-.022-1.006-.033-1.527-.033s-1.067.015-1.626.044S21.931-17.693,21.4-17.62ZM6.2-7.3a14.6,14.6,0,0,1-2.745-4.46A14.3,14.3,0,0,1,2.48-17a3.663,3.663,0,0,1,.022-.464,52.029,52.029,0,0,0,14.9-2.059c.471.914.866,1.741,1.173,2.457a1.691,1.691,0,0,1-.288.1c-.14.039-.231.064-.287.077l-.819.288a17.125,17.125,0,0,0-2.2,1.062c-.907.5-1.879,1.106-2.888,1.794A19.809,19.809,0,0,0,8.932-10.99,18.578,18.578,0,0,0,6.2-7.3ZM25.124-4.958A62.593,62.593,0,0,0,22.29-15.34a19.779,19.779,0,0,1,3.03-.234,21.944,21.944,0,0,1,6.023.876,14.359,14.359,0,0,1-2.125,5.545A14.575,14.575,0,0,1,25.124-4.958Zm-17.044-.6h0a11.91,11.91,0,0,1,2.279-3.275,19.246,19.246,0,0,1,2.9-2.534,28.421,28.421,0,0,1,3.033-1.815c1.082-.564,1.834-.929,2.236-1.085s.713-.276.952-.365l.044-.023h.044a60.055,60.055,0,0,1,3.1,11.023A14.577,14.577,0,0,1,17-2.48,14.307,14.307,0,0,1,7.747-5.8l.331.243Z" transform="translate(15 49)" fill="#fff"/>
  </g>
</svg>
