<svg id="logo-instagram" xmlns="http://www.w3.org/2000/svg" width="18" height="18" viewBox="0 0 18 18">
  <path id="Shape" d="M5.289,17.946A5.381,5.381,0,0,1,1.51,16.49,5.38,5.38,0,0,1,.054,12.711C.011,11.75,0,11.444,0,9S.011,6.25.054,5.289A5.381,5.381,0,0,1,1.51,1.51,5.38,5.38,0,0,1,5.289.054C6.25.011,6.556,0,9,0s2.75.011,3.711.054A5.381,5.381,0,0,1,16.49,1.51a5.38,5.38,0,0,1,1.456,3.779C17.989,6.25,18,6.556,18,9s-.011,2.75-.054,3.711A5.381,5.381,0,0,1,16.49,16.49a5.38,5.38,0,0,1-3.779,1.456C11.75,17.989,11.444,18,9,18S6.25,17.989,5.289,17.946Z" fill="#fff" opacity="0.9"/>
  <path id="Shape-2" data-name="Shape" d="M0,4.5A4.5,4.5,0,1,1,4.5,9,4.5,4.5,0,0,1,0,4.5Z" transform="translate(4.909 4.909)" fill="#161c2d"/>
  <circle id="Oval" cx="1.227" cy="1.227" r="1.227" transform="translate(12.273 3.273)" fill="#161c2d"/>
</svg>
