<svg xmlns="http://www.w3.org/2000/svg" width="16" height="12.945" viewBox="0 0 16 12.945">
  <g id="Twitter_Logo_Blue" transform="translate(0 -0.029)">
    <path id="Path" d="M5.032,12.945a9.256,9.256,0,0,0,9.34-9.3c0-.141,0-.282-.01-.423A6.663,6.663,0,0,0,16,1.531a6.574,6.574,0,0,1-1.885.514A3.282,3.282,0,0,0,15.558.237a6.6,6.6,0,0,1-2.084.793A3.285,3.285,0,0,0,7.879,4.011,9.333,9.333,0,0,1,1.114.6,3.263,3.263,0,0,0,2.13,4.96,3.269,3.269,0,0,1,.64,4.551v.041A3.273,3.273,0,0,0,3.274,7.8a3.291,3.291,0,0,1-1.482.056,3.285,3.285,0,0,0,3.067,2.27,6.6,6.6,0,0,1-4.077,1.4A6.711,6.711,0,0,1,0,11.477a9.323,9.323,0,0,0,5.032,1.466" transform="translate(0 0.029)" fill="#1da1f2"/>
  </g>
</svg>
