<svg xmlns="http://www.w3.org/2000/svg" width="17" height="15" viewBox="0 0 17 15">
  <g id="logo-twitter" transform="translate(0 0)" opacity="0.9">
    <path id="Path" d="M17,1.74a7.267,7.267,0,0,1-2.019.619A3.69,3.69,0,0,0,16.5.271a7.3,7.3,0,0,1-2.231.928A3.4,3.4,0,0,0,11.723,0,3.646,3.646,0,0,0,8.252,3.789a3.274,3.274,0,0,0,.106.851A9.674,9.674,0,0,1,1.169.657a4.24,4.24,0,0,0-.46,1.894,3.887,3.887,0,0,0,1.558,3.17A3.833,3.833,0,0,1,.673,5.258V5.3a3.753,3.753,0,0,0,2.8,3.75,3.552,3.552,0,0,1-.921.116,3.989,3.989,0,0,1-.673-.077,3.518,3.518,0,0,0,3.258,2.629A6.717,6.717,0,0,1,.815,13.338,5.5,5.5,0,0,1,0,13.3,9.264,9.264,0,0,0,5.348,15c6.41,0,9.917-5.8,9.917-10.825v-.5A6.7,6.7,0,0,0,17,1.74Z" fill="#fff"/>
  </g>
</svg>
